<svg height="512" viewBox="0 0 256 256" width="512" xmlns="http://www.w3.org/2000/svg"><path d="m170.005 193.162a2.5 2.5 0 0 1 -1.768-4.267l20.663-20.658a2.5 2.5 0 0 1 3.535 3.535l-20.663 20.658a2.49 2.49 0 0 1 -1.767.732z" fill="#fff"/><g fill="#fff"><path d="m214.91 190.718-30.255-30.256a12.251 12.251 0 0 0 -17.307 0l-6.886 6.885a12.238 12.238 0 0 0 0 17.308l30.255 30.256a12.252 12.252 0 0 0 17.307 0l6.885-6.885a12.236 12.236 0 0 0 0-17.308zm-3.536 13.773-6.885 6.884a7.247 7.247 0 0 1 -10.237 0l-30.252-30.256a7.239 7.239 0 0 1 0-10.237l6.883-6.882a7.246 7.246 0 0 1 10.237 0l30.255 30.256a7.239 7.239 0 0 1 0 10.238z"/><path d="m149.379 159.614a2.5 2.5 0 0 0 -3.263-.235 64.859 64.859 0 1 1 13.262-13.263 2.5 2.5 0 0 0 .236 3.263l4.4 4.4a2.5 2.5 0 1 0 3.535-3.536l-2.9-2.9a69.841 69.841 0 1 0 -17.306 17.307l2.9 2.9a2.5 2.5 0 1 0 3.535-3.536z"/><path d="m107.364 54.852a52.512 52.512 0 1 0 52.512 52.512 52.571 52.571 0 0 0 -52.512-52.512zm0 100.024a47.512 47.512 0 1 1 47.512-47.512 47.565 47.565 0 0 1 -47.512 47.512z"/></g><path d="m108.08 149.119a42.233 42.233 0 1 1 29.862-12.37 41.954 41.954 0 0 1 -29.862 12.37zm0-79.466a37.234 37.234 0 1 0 26.327 10.906 36.988 36.988 0 0 0 -26.327-10.906z" fill="#fff"/><path d="m107.364 126.562a2.5 2.5 0 0 1 -2.5-2.5v-33.395a2.5 2.5 0 0 1 5 0v33.395a2.5 2.5 0 0 1 -2.5 2.5z" fill="#f9b087"/><path d="m124.062 109.864h-33.395a2.5 2.5 0 0 1 0-5h33.395a2.5 2.5 0 0 1 0 5z" fill="#fff"/></svg>